<svg width="10" height="12" viewBox="0 0 10 12" fill="none" xmlns="http://www.w3.org/2000/svg">
<path d="M8.74609 11.8906C8.79167 11.9271 8.8418 11.9544 8.89648 11.9727C8.96029 11.9909 9.02409 12 9.08789 12C9.24284 12 9.375 11.9453 9.48438 11.8359C9.60286 11.7174 9.66211 11.5762 9.66211 11.4121V2.08789C9.66211 1.8418 9.61654 1.61393 9.52539 1.4043C9.43425 1.18555 9.3112 0.998698 9.15625 0.84375C8.99219 0.688802 8.80534 0.565755 8.5957 0.474609C8.38607 0.383464 8.1582 0.337891 7.91211 0.337891H2.08789C1.8418 0.337891 1.60938 0.383464 1.39062 0.474609C1.18099 0.565755 0.998698 0.688802 0.84375 0.84375C0.688802 1.00781 0.565755 1.19466 0.474609 1.4043C0.383464 1.61393 0.337891 1.8418 0.337891 2.08789V11.4121C0.337891 11.4759 0.347005 11.5352 0.365234 11.5898C0.383464 11.6445 0.410807 11.6992 0.447266 11.7539C0.538411 11.8815 0.661458 11.959 0.816406 11.9863C0.980469 12.0137 1.1263 11.9818 1.25391 11.8906L5 9.21094L8.74609 11.8906ZM8.5 10.2773L5.3418 8.02148C5.23242 7.94857 5.11393 7.91667 4.98633 7.92578C4.86784 7.92578 4.75846 7.95768 4.6582 8.02148L1.5 10.2773V2.08789C1.5 2.00586 1.51367 1.92839 1.54102 1.85547C1.57747 1.78255 1.61849 1.72331 1.66406 1.67773C1.71875 1.62305 1.78255 1.58203 1.85547 1.55469C1.92839 1.51823 2.00586 1.5 2.08789 1.5H7.91211C7.99414 1.5 8.07161 1.51823 8.14453 1.55469C8.21745 1.58203 8.27669 1.62305 8.32227 1.67773C8.37695 1.72331 8.41797 1.78255 8.44531 1.85547C8.48177 1.92839 8.5 2.00586 8.5 2.08789V10.2773Z" fill="white"/>
</svg>
